<svg width="64" height="64" viewBox="0 0 64 64" fill="none" xmlns="http://www.w3.org/2000/svg">
  <!-- Munich 1972 inspired geometric logo -->
  
  <!-- Main octagonal background -->
  <path d="M16 8L48 8L56 16L56 48L48 56L16 56L8 48L8 16L16 8Z" fill="#4A90E2" stroke="#2C3E50" stroke-width="1"/>
  
  <!-- Inner geometric elements -->
  <path d="M24 16L40 16L44 20L44 44L40 48L24 48L20 44L20 20L24 16Z" fill="#FFFFFF" stroke="#4A90E2" stroke-width="1"/>
  
  <!-- Diamond accent -->
  <path d="M32 20L36 24L32 28L28 24L32 20Z" fill="#E67E22"/>
  
  <!-- Geometric running figure (simplified) -->
  <path d="M28 32L30 34L32 32L34 34L36 32" stroke="#2C3E50" stroke-width="2" stroke-linecap="round" fill="none"/>
  
  <!-- Corner geometric accents -->
  <path d="M12 12L16 12L16 16L12 16L12 12Z" fill="#E67E22"/>
  <path d="M48 12L52 12L52 16L48 16L48 12Z" fill="#E67E22"/>
  <path d="M12 48L16 48L16 52L12 52L12 48Z" fill="#E67E22"/>
  <path d="M48 48L52 48L52 52L48 52L48 48Z" fill="#E67E22"/>
</svg> 